<svg xmlns="http://www.w3.org/2000/svg" width="1969.09" height="450.007" viewBox="0 0 1969.09 450.007"><g transform="translate(-40 -293)"><g transform="translate(40 262.003)"><path d="M491.976,480.139,435.008,459.88A190.442,190.442,0,0,1,347,481c-90.981,0-165-60.557-165-135,0-29.033,11-56.484,31.8-79.38a14.887,14.887,0,0,1,6.357-4.146c23.452-7.822,43.374-20.625,57.612-37.017a14.994,14.994,0,0,1,6.577-4.38A197.332,197.332,0,0,1,347,211c90.981,0,165,60.557,165,135,0,21.694-6.738,43.271-19.556,62.842l18.677,52.09a15.006,15.006,0,0,1-19.144,19.2Z" fill="#42b5a4"/><path d="M165,301C74.019,301,0,240.447,0,166c0-21.694,6.738-43.271,19.556-62.842L.879,51.072a15.006,15.006,0,0,1,19.146-19.2L76.993,52.127A190.306,190.306,0,0,1,165,31c90.981,0,165,60.557,165,135C330,241.994,253.926,301,165,301Z" fill="#589c92"/><g transform="translate(0 19.372)"><path d="M287,347.632c-8.291,0-15-3.537-15-7.907V323.911c0-4.37,6.709-7.907,15-7.907s15,3.537,15,7.907v15.814C302,344.1,295.291,347.632,287,347.632Z" transform="translate(0 0)" fill="#fff"/></g><g transform="translate(0 19.372)"><path d="M347,347.632c-8.291,0-15-3.537-15-7.907V323.911c0-4.37,6.709-7.907,15-7.907s15,3.537,15,7.907v15.814C362,344.1,355.291,347.632,347,347.632Z" fill="#fff"/></g><circle cx="15" cy="15" r="15" transform="translate(150 211.004)" fill="#fff"/><g transform="translate(60 19.372)"><path d="M347,347.632c-8.291,0-15-3.537-15-7.907V323.911c0-4.37,6.709-7.907,15-7.907s15,3.537,15,7.907v15.814C362,344.1,355.291,347.632,347,347.632Z" fill="#fff"/></g><path d="M210,136a45.058,45.058,0,0,1-29.7,42.3c0,8.4-6.9,16.5-15.3,16.5-8.1,0-15-5.4-15-13.8,0-12.6,5.7-23.1,15-28.5a26.616,26.616,0,0,1,5.1-2.4A15,15,0,1,0,150,136a15,15,0,0,1-30,0,45,45,0,1,1,90,0Z" fill="#fff"/></g><path d="M160.05,0h50.16L129.69-102.3l73.59-73.92h-49.5L68.31-97.02V-244.86H27.06V0H68.31V-46.53L99-75.57ZM335.28-178.2c-25.74,0-47.19,8.58-60.72,24.75v-22.77H235.29V0h41.25V-89.1c0-35.31,19.8-53.13,49.17-53.13,26.4,0,41.91,15.18,41.91,46.53V0h41.25V-100.98C408.87-154.11,377.52-178.2,335.28-178.2ZM542.19,2.31c54.78,0,94.05-37.62,94.05-90.42s-39.27-90.09-94.05-90.09c-54.12,0-93.72,37.29-93.72,90.09S488.07,2.31,542.19,2.31Zm0-35.31c-29.7,0-52.14-21.45-52.14-55.11s22.44-55.11,52.14-55.11c30.03,0,52.47,21.45,52.47,55.11S572.22-33,542.19-33ZM909.15-176.22,861.3-45.54,813.78-176.22H779.13L730.62-46.2,684.09-176.22H645.15L709.83,0h39.6l46.2-121.44L841.17,0h39.6l65.01-176.22ZM1083.39,3.3c37.95,0,70.29-13.53,91.74-38.61l-27.72-26.4c-16.83,18.48-37.62,27.39-61.71,27.39-47.85,0-82.5-33.66-82.5-81.18s34.65-81.18,82.5-81.18c24.09,0,44.88,8.91,61.71,27.06l27.72-26.07c-21.45-25.08-53.79-38.61-91.41-38.61-70.95,0-123.75,49.83-123.75,118.8S1012.77,3.3,1083.39,3.3Zm234.96,0c37.95,0,70.29-13.53,91.74-38.61l-27.72-26.4c-16.83,18.48-37.62,27.39-61.71,27.39-47.85,0-82.5-33.66-82.5-81.18s34.65-81.18,82.5-81.18c24.09,0,44.88,8.91,61.71,27.06l27.72-26.07c-21.45-25.08-53.79-38.61-91.41-38.61-70.95,0-123.75,49.83-123.75,118.8S1247.73,3.3,1318.35,3.3Z" transform="translate(599 636)" fill="#fff"/></g></svg>